<?xml version="1.0" encoding="UTF-8"?>
<svg id="Layer_1" data-name="Layer 1" xmlns="http://www.w3.org/2000/svg" viewBox="0 0 158.63 120.91">
  <defs>
    <style>
      .cls-1 {
        fill: #fffef9;
      }

      .cls-2 {
        fill: #594a42;
      }

      .cls-3, .cls-4, .cls-5, .cls-6, .cls-7 {
        stroke: #dd8326;
        stroke-miterlimit: 10;
      }

      .cls-3, .cls-4, .cls-6 {
        fill: none;
      }

      .cls-3, .cls-7 {
        stroke-width: 4px;
      }

      .cls-4, .cls-5 {
        stroke-width: 5px;
      }

      .cls-5 {
        opacity: .13;
      }

      .cls-5, .cls-7 {
        fill: #dd8327;
      }

      .cls-8 {
        fill: #a4b8df;
      }

      .cls-6 {
        stroke-width: 2px;
      }

      .cls-9 {
        fill: #dd8326;
      }

      .cls-10 {
        fill: #995a13;
      }
    </style>
  </defs>
  <g>
    <polygon class="cls-1" points="64.18 70.84 34.84 77.49 34.84 19.23 64.55 11.53 92.6 19.88 124.82 12.11 124.82 71.04 92.73 81.55 64.18 70.84"/>
    <path class="cls-9" d="M64.5,14.12l26.74,7.97,1.29.38,1.31-.32,28.47-6.87v53.94l-29.53,9.67-27.03-10.14-1.4-.53-1.46.33-7.23,1.64-4.92,1.11-13.4,3.03V21.17l23.9-6.2,3.26-.85M127.32,8.93l-34.65,8.36-28.07-8.36c-10.75,2.79-21.5,5.58-32.26,8.36v63.32c6.5-1.47,13-2.94,19.5-4.42,4.05-.92,8.1-1.83,12.16-2.75l28.67,10.75,34.65-11.35V8.93h0Z"/>
  </g>
  <line class="cls-3" x1="60.66" y1="31.27" x2="61.59" y2="43.54"/>
  <line class="cls-3" x1="85.03" y1="33.32" x2="85.96" y2="45.6"/>
  <path class="cls-3" d="M10.76,44.19c1.07,4.59,3.08,7.85,4.46,9.72,1.97,2.69,4.74,6.45,10.04,8.19,3.98,1.31,7.59.87,9.48.51"/>
  <ellipse class="cls-7" cx="10.75" cy="44.19" rx="2.38" ry="4.73" transform="translate(-17.76 8.75) rotate(-25.14)"/>
  <ellipse class="cls-10" cx="10.75" cy="43.63" rx="2.38" ry="4.73" transform="translate(-17.52 8.7) rotate(-25.14)"/>
  <path class="cls-3" d="M151.9,54.02c-1.41-4.5-3.67-7.59-5.19-9.36-2.17-2.53-5.22-6.07-10.63-7.4-4.07-1-7.64-.3-9.49.21"/>
  <ellipse class="cls-7" cx="151.9" cy="54.02" rx="4.73" ry="2.38" transform="translate(-3.66 11.67) rotate(-4.35)"/>
  <ellipse class="cls-7" cx="54.86" cy="111.07" rx="4.73" ry="2.38" transform="translate(-8.26 4.48) rotate(-4.35)"/>
  <line class="cls-5" x1="63.51" y1="70.9" x2="64.08" y2="9.68"/>
  <line class="cls-5" x1="90.72" y1="81.1" x2="90.72" y2="17.61"/>
  <path class="cls-4" d="M57.62,72.48c-1.28,1.49-9.15,10.94-7.16,23.73,1.12,7.2,4.85,12.1,6.78,14.31"/>
  <ellipse class="cls-7" cx="102.69" cy="116.51" rx="2.38" ry="4.73" transform="translate(-21.27 210.08) rotate(-85.65)"/>
  <path class="cls-4" d="M99.94,77.92c1.28,1.49,9.15,10.94,7.16,23.73-1.12,7.2-4.85,12.1-6.78,14.31"/>
  <g>
    <path class="cls-8" d="M20.91,21.99c-.09-.3-.38-.53-.59-.38-1.5,1.09-3.28,1.33-4.98,1.11s-3.35-.86-5-1.46c-.6-.22-1.21-.43-1.83-.44-.85-.02-1.68.34-2.49.69l-2.63,1.15,2.47,20.54,12.24.08,2.82-21.3Z"/>
    <polygon class="cls-6" points="1.16 15.44 5.34 44.13 17.39 44.19 22.22 15.44 1.16 15.44"/>
    <circle class="cls-2" cx="7.91" cy="40.9" r="1.24"/>
    <circle class="cls-2" cx="15.43" cy="38.11" r="1.24"/>
    <circle class="cls-2" cx="12.76" cy="36.21" r="1.24"/>
    <circle class="cls-2" cx="9.31" cy="34.53" r="1.24"/>
    <circle class="cls-2" cx="11.38" cy="40.64" r="1.24"/>
    <circle class="cls-2" cx="10.14" cy="37.77" r="1.24"/>
    <circle class="cls-2" cx="7.36" cy="37.59" r="1.24"/>
    <circle class="cls-2" cx="15.43" cy="35.11" r="1.24"/>
    <circle class="cls-2" cx="14.85" cy="41.52" r="1.24"/>
  </g>
  <polyline class="cls-6" points="11.38 15.44 14.85 1 22.75 1"/>
</svg>