<?xml version="1.0" encoding="UTF-8"?>
<svg id="Layer_1" data-name="Layer 1" xmlns="http://www.w3.org/2000/svg" viewBox="0 0 179.46 111.98">
  <defs>
    <style>
      .cls-1 {
        fill: #fffef9;
      }

      .cls-2, .cls-3, .cls-4, .cls-5, .cls-6, .cls-7, .cls-8 {
        stroke-miterlimit: 10;
      }

      .cls-2, .cls-3, .cls-4, .cls-7, .cls-8 {
        fill: none;
      }

      .cls-2, .cls-7, .cls-8 {
        stroke: #a4b8df;
      }

      .cls-3, .cls-4, .cls-5, .cls-6 {
        stroke: #dd8326;
      }

      .cls-3, .cls-6 {
        stroke-width: 4px;
      }

      .cls-4, .cls-5 {
        stroke-width: 5px;
      }

      .cls-5 {
        opacity: .13;
      }

      .cls-5, .cls-6 {
        fill: #dd8327;
      }

      .cls-9 {
        fill: #fff;
      }

      .cls-10 {
        fill: #a4b8df;
      }

      .cls-7 {
        stroke-width: 1.75px;
      }

      .cls-11 {
        fill: #dd8326;
      }

      .cls-8 {
        stroke-width: .5px;
      }

      .cls-12 {
        fill: #995a13;
      }
    </style>
  </defs>
  <rect class="cls-2" x="2.59" y="35.4" width="7.47" height="10.05" transform="translate(-6.91 79.13) rotate(-152.24)"/>
  <rect class="cls-2" x="22.21" y="45.85" width="7.47" height="10.05" transform="translate(73.85 81.95) rotate(150)"/>
  <rect class="cls-2" x="46.46" y="32.61" width="7.47" height="10.05" transform="translate(11.41 -11.68) rotate(14.95)"/>
  <g>
    <polygon class="cls-1" points="85.01 61.91 55.67 68.55 55.67 10.3 85.38 2.59 113.43 10.95 145.65 3.17 145.65 62.1 113.56 72.61 85.01 61.91"/>
    <path class="cls-11" d="M85.33,5.19l26.74,7.97,1.29.38,1.31-.32,28.47-6.87v53.94l-29.53,9.67-27.03-10.14-1.4-.53-1.46.33-7.47,1.69-4.68,1.06-13.4,3.03V12.23l17.63-4.57,9.53-2.47M148.15,0l-34.65,8.36L85.43,0c-10.75,2.79-21.5,5.58-32.26,8.36v63.32c6.5-1.47,13-2.94,19.5-4.42,4.05-.92,8.1-1.83,12.16-2.75l28.67,10.75,34.65-11.35V0h0Z"/>
  </g>
  <line class="cls-3" x1="81.49" y1="22.33" x2="82.42" y2="34.61"/>
  <line class="cls-3" x1="105.86" y1="24.39" x2="106.79" y2="36.66"/>
  <path class="cls-3" d="M31.59,35.26c1.07,4.59,3.08,7.85,4.46,9.72,1.97,2.69,4.74,6.45,10.04,8.19,3.98,1.31,7.59.87,9.48.51"/>
  <ellipse class="cls-6" cx="31.58" cy="35.26" rx="2.38" ry="4.73" transform="translate(-11.99 16.76) rotate(-25.14)"/>
  <ellipse class="cls-12" cx="31.58" cy="34.69" rx="2.38" ry="4.73" transform="translate(-11.75 16.7) rotate(-25.14)"/>
  <path class="cls-3" d="M172.73,45.09c-1.41-4.5-3.67-7.59-5.19-9.36-2.17-2.53-5.22-6.07-10.63-7.4-4.07-1-7.64-.3-9.49.21"/>
  <ellipse class="cls-6" cx="172.74" cy="45.09" rx="4.73" ry="2.38" transform="translate(-2.92 13.23) rotate(-4.35)"/>
  <ellipse class="cls-6" cx="75.69" cy="102.14" rx="4.73" ry="2.38" transform="translate(-7.53 6.03) rotate(-4.35)"/>
  <line class="cls-5" x1="84.34" y1="61.96" x2="84.91" y2=".74"/>
  <line class="cls-5" x1="111.55" y1="72.16" x2="111.55" y2="8.68"/>
  <path class="cls-4" d="M78.45,63.55c-1.28,1.49-9.15,10.94-7.16,23.73,1.12,7.2,4.85,12.1,6.78,14.31"/>
  <ellipse class="cls-6" cx="123.52" cy="107.58" rx="2.38" ry="4.73" transform="translate(6.89 222.59) rotate(-85.65)"/>
  <path class="cls-4" d="M120.77,68.99c1.28,1.49,9.15,10.94,7.16,23.73-1.12,7.2-4.85,12.1-6.78,14.31"/>
  <g>
    <path class="cls-7" d="M55.57,26.64c3.17,2.49,10.19,8.01,13.37,10.51"/>
    <path class="cls-7" d="M146.15,25.02c-8.25,3.29-21.31,8.5-29.66,11.83"/>
    <g>
      <path class="cls-7" d="M88.72,38.52c-.45,11.8-18.67,12.26-19.74.48-.32-12.65,19.14-13.14,19.74-.67v.19Z"/>
      <path class="cls-7" d="M116.79,38.52c-.45,11.8-18.67,12.26-19.74.48-.32-12.65,19.14-13.14,19.74-.67v.19Z"/>
      <path class="cls-7" d="M88.7,38.43h8.31"/>
    </g>
  </g>
  <g id="nEm86r.tif">
    <g>
      <path d="M38.3,9.46c3.11,6.63,6.22,13.26,9.33,19.88-.06.69-.42,1.02-1.1,1.11-.77.1-1.53.26-2.29.43-4.2.89-7.87,2.73-10.75,6.02-.24.28-.72.45-1.1.46-2.47.08-4.81.63-7.02,1.69-2.22,1.06-4.21,2.48-6.05,4.12-.89.79-1.4.67-1.94-.46-.2-.42-.39-.83-.59-1.25-2.73-5.81-5.46-11.63-8.18-17.44-.42-.89-.28-1.27.57-1.67.66-.31,1.32-.62,2.07-.97-.42-.89-.82-1.71-1.19-2.55-.36-.79-.28-1.18.41-1.63,2.5-1.65,5.22-2.75,8.28-2.52,1.45.11,2.88.56,4.38.87.07-.22.17-.62.32-.99,1.7-4.07,4.94-6.27,8.92-7.58.67-.22,1.08.08,1.36.67.4.85.8,1.69,1.22,2.6.69-.32,1.33-.58,1.92-.92.52-.29.96-.26,1.42.12ZM19.67,35.29c3.38-1.75,6.92-2.33,10.67-1.65-.02-.13-.01-.18-.03-.21-2.38-5.08-4.76-10.17-7.16-15.24-.08-.17-.23-.36-.4-.45-.67-.34-1.33-.73-2.03-.93-3.05-.86-5.83-.07-8.48,1.39-.37.21-.32.45-.16.79,1.19,2.57,2.36,5.14,3.56,7.71,1.32,2.84,2.65,5.66,4.03,8.59ZM32.25,8.83c-1.14.63-2.3,1.15-3.33,1.86-2.07,1.4-3.62,3.24-4.14,5.81-.08.39-.03.88.13,1.23,2.27,4.91,4.58,9.8,6.88,14.7l.31.66c2-3.38,4.46-6.07,8-7.53-2.62-5.58-5.2-11.07-7.85-16.73ZM30.64,35.69c-.14-.1-.19-.15-.25-.16-.15-.04-.31-.07-.46-.1-3.55-.68-6.83.06-9.94,1.72-.95.51-1.24.4-1.72-.62-1.98-4.26-3.96-8.51-5.94-12.76-.1-.22-.21-.45-.33-.69l-1.51.71,8.22,17.52c3.49-2.91,7.28-5.1,11.93-5.61ZM35.75,11.93c.15.31.26.56.38.81,1.97,4.21,3.95,8.41,5.92,12.62.45.97.32,1.41-.65,1.72-1.42.45-2.69,1.18-3.83,2.12-1.52,1.26-2.69,2.81-3.62,4.39,1.71-.99,3.44-2.18,5.32-3.01,1.92-.84,3.99-1.31,6.03-1.95-2.69-5.73-5.41-11.52-8.15-17.36l-1.4.66Z"/>
      <path class="cls-10" d="M38.3,9.46c-.45-.37-.9-.41-1.42-.12-.6.34-1.24.59-1.92.92-.43-.91-.82-1.76-1.22-2.6-.28-.59-.69-.89-1.36-.67-3.98,1.31-7.22,3.52-8.92,7.58-.16.37-.25.77-.32.99-1.51-.31-2.94-.76-4.38-.87-3.06-.23-5.78.87-8.28,2.52-.69.45-.77.84-.41,1.63.38.83.77,1.66,1.19,2.55-.75.35-1.41.66-2.07.97-.85.4-.99.78-.57,1.67,2.73,5.81,5.46,11.63,8.18,17.44.2.42.39.83.59,1.25.53,1.13,1.04,1.25,1.94.46,1.84-1.64,3.83-3.06,6.05-4.12,2.21-1.06,4.55-1.61,7.02-1.69.38-.01.86-.19,1.1-.46,2.88-3.29,6.55-5.13,10.75-6.02.76-.16,1.52-.33,2.29-.43.67-.09,1.04-.42,1.1-1.11l.47,1"/>
      <path class="cls-9" d="M19.67,35.29c-1.38-2.93-2.71-5.76-4.03-8.59-1.19-2.57-2.36-5.14-3.56-7.71-.16-.34-.21-.59.16-.79,2.65-1.45,5.43-2.25,8.48-1.39.7.2,1.36.59,2.03.93.16.08.31.27.4.45,2.39,5.08,4.77,10.16,7.16,15.24.02.04.01.08.03.21-3.75-.68-7.28-.1-10.67,1.65Z"/>
      <path class="cls-9" d="M32.25,8.83c2.65,5.66,5.23,11.15,7.85,16.73-3.54,1.46-6,4.15-8,7.53l-.31-.66c-2.3-4.9-4.6-9.79-6.88-14.7-.17-.36-.21-.85-.13-1.23.52-2.57,2.07-4.41,4.14-5.81,1.04-.7,2.19-1.23,3.33-1.86Z"/>
      <path class="cls-9" d="M30.64,35.69c-4.65.51-8.43,2.7-11.93,5.61l-8.22-17.52,1.51-.71c.12.25.22.47.33.69,1.98,4.25,3.96,8.51,5.94,12.76.47,1.02.76,1.13,1.72.62,3.11-1.66,6.39-2.4,9.94-1.72.15.03.31.06.46.1.06.02.11.07.25.16Z"/>
      <path class="cls-9" d="M35.75,11.93l1.4-.66c2.74,5.83,5.46,11.63,8.15,17.36-2.03.64-4.11,1.11-6.03,1.95-1.89.82-3.61,2.02-5.32,3.01.94-1.58,2.11-3.13,3.62-4.39,1.14-.95,2.41-1.67,3.83-2.12.97-.31,1.11-.75.65-1.72-1.97-4.21-3.95-8.42-5.92-12.62-.12-.25-.23-.5-.38-.81Z"/>
    </g>
  </g>
  <path class="cls-8" d="M14.26,20.06c.62-.12,1.24-.21,1.87-.26.75-.06,1.51-.07,2.23.16.56.18,1.08.51,1.67.54.59.03,1.18-.27,1.5-.76"/>
  <path class="cls-8" d="M16.79,23.47l3.99.21c.53.03,1.06.06,1.58,0,.6-.07,1.18-.26,1.76-.44"/>
  <path class="cls-8" d="M17.23,27.14l5.02.02c.43,0,.86,0,1.29.07.36.06.73.16,1.1.11s.74-.32.75-.69"/>
  <path class="cls-8" d="M20.08,32.02c.47,0,.92-.2,1.36-.37,1.64-.61,3.43-.84,5.17-.66"/>
  <path class="cls-8" d="M32.36,29.08c-.11-.7.48-1.3,1.03-1.76.38-.33.77-.66,1.23-.85.44-.19.93-.25,1.38-.42.82-.31,1.49-1.01,1.76-1.85"/>
  <path class="cls-8" d="M31.03,23.98c1.68-1.4,3.73-2.35,5.88-2.75"/>
  <path class="cls-8" d="M28.2,18.58c1.47-.72,2.86-1.61,4.14-2.63.4-.32.79-.65,1.27-.84"/>
  <path class="cls-8" d="M25.39,15.94c1.38-.67,2.65-1.56,3.9-2.44.57-.4,1.14-.8,1.71-1.2"/>
  <path class="cls-8" d="M28.69,21.85c2.12-.51,3.95-1.93,6.1-2.32.29-.05.59-.09.82-.27s.34-.55.14-.76"/>
  <path class="cls-8" d="M3.11,42.39l3.02-4.65"/>
  <path class="cls-8" d="M7.21,39.94c-1.35.98-2.19,2.62-2.19,4.29-.04-1.13,1.38-3.51,2.19-4.29Z"/>
  <path class="cls-8" d="M25.48,48.14c-.03,1.12.36,2.24,1.08,3.1"/>
  <path class="cls-8" d="M23.72,47.28c-.18,1.17.03,2.4.58,3.45.42.8,1.03,1.49,1.53,2.24"/>
  <path class="cls-8" d="M49.35,35.63c-.59,1.32-.79,2.81-.58,4.24-.13-1.68-.1-2.7.58-4.24Z"/>
  <path class="cls-8" d="M50.9,41.39c-.07-2.24.13-4.5.6-6.69"/>
</svg>