<?xml version="1.0" encoding="UTF-8"?>
<svg id="Layer_1" data-name="Layer 1" xmlns="http://www.w3.org/2000/svg" viewBox="0 0 191.57 125.01">
  <defs>
    <style>
      .cls-1 {
        fill: #f1f2f2;
      }

      .cls-1, .cls-2, .cls-3, .cls-4, .cls-5, .cls-6, .cls-7, .cls-8 {
        stroke-miterlimit: 10;
      }

      .cls-1, .cls-3, .cls-4, .cls-5, .cls-6, .cls-7 {
        stroke: #dd8326;
      }

      .cls-1, .cls-6 {
        stroke-width: 2px;
      }

      .cls-9 {
        fill: #fffef9;
      }

      .cls-2 {
        fill: #a4b8df;
      }

      .cls-2, .cls-8 {
        stroke: #a4b8df;
        stroke-width: 3px;
      }

      .cls-3, .cls-4, .cls-6, .cls-8 {
        fill: none;
      }

      .cls-3, .cls-7 {
        stroke-width: 4px;
      }

      .cls-4, .cls-5 {
        stroke-width: 5px;
      }

      .cls-5 {
        opacity: .13;
      }

      .cls-5, .cls-7 {
        fill: #dd8327;
      }

      .cls-10 {
        fill: #dd8326;
      }

      .cls-11 {
        fill: #995a13;
      }
    </style>
  </defs>
  <g>
    <polygon class="cls-9" points="97.12 74.94 67.78 81.59 67.78 23.33 97.49 15.63 125.55 23.99 157.76 16.21 157.76 75.14 125.67 85.65 97.12 74.94"/>
    <path class="cls-10" d="M97.45,18.22l26.74,7.97,1.29.38,1.31-.32,28.47-6.87v53.94l-29.53,9.67-27.03-10.14-1.4-.53-1.46.33-12.16,2.75-13.4,3.03V25.27l6.52-1.69,20.64-5.35M160.26,13.04l-34.65,8.36-28.07-8.36c-10.75,2.79-21.5,5.58-32.26,8.36v63.32c6.5-1.47,13-2.94,19.5-4.42,4.05-.92,8.1-1.83,12.16-2.75l28.67,10.75,34.65-11.35V13.04h0Z"/>
  </g>
  <line class="cls-3" x1="93.6" y1="35.37" x2="94.53" y2="47.65"/>
  <line class="cls-3" x1="117.97" y1="37.42" x2="118.9" y2="49.7"/>
  <path class="cls-3" d="M43.7,48.29c1.07,4.59,3.08,7.85,4.46,9.72,1.97,2.69,4.74,6.45,10.04,8.19,3.98,1.31,7.59.87,9.48.51"/>
  <ellipse class="cls-7" cx="43.69" cy="48.29" rx="2.38" ry="4.73" transform="translate(-16.38 23.14) rotate(-25.14)"/>
  <ellipse class="cls-11" cx="43.69" cy="47.73" rx="2.38" ry="4.73" transform="translate(-16.14 23.08) rotate(-25.14)"/>
  <path class="cls-3" d="M184.84,58.12c-1.41-4.5-3.67-7.59-5.19-9.36-2.17-2.53-5.22-6.07-10.63-7.4-4.07-1-7.64-.3-9.49.21"/>
  <ellipse class="cls-7" cx="184.85" cy="58.12" rx="4.73" ry="2.38" transform="translate(-3.87 14.18) rotate(-4.35)"/>
  <ellipse class="cls-7" cx="87.8" cy="115.17" rx="4.73" ry="2.38" transform="translate(-8.48 6.99) rotate(-4.35)"/>
  <line class="cls-5" x1="96.45" y1="75" x2="97.02" y2="13.78"/>
  <line class="cls-5" x1="123.66" y1="85.2" x2="123.66" y2="21.71"/>
  <path class="cls-4" d="M90.56,76.58c-1.28,1.49-9.15,10.94-7.16,23.73,1.12,7.2,4.85,12.1,6.78,14.31"/>
  <ellipse class="cls-7" cx="135.63" cy="120.62" rx="2.38" ry="4.73" transform="translate(5.08 246.71) rotate(-85.65)"/>
  <path class="cls-4" d="M132.88,82.02c1.28,1.49,9.15,10.94,7.16,23.73-1.12,7.2-4.85,12.1-6.78,14.31"/>
  <ellipse class="cls-1" cx="40.35" cy="45.59" rx="17.54" ry="3.72"/>
  <path class="cls-2" d="M25.29,20.58h30.11v13.37c0,5.76-4.68,10.44-10.44,10.44h-9.23c-5.76,0-10.44-4.68-10.44-10.44v-13.37h0Z"/>
  <path class="cls-8" d="M55.69,21.71c4.6,0,8.33,3.73,8.33,8.33h0c0,4.6-5.02,8.33-9.62,8.33"/>
  <path class="cls-6" d="M39.34,16.51c1.2-.89,1.61-2.71.91-4.03-.49-.91-1.39-1.54-1.91-2.42-.72-1.21-.64-2.8.01-4.06.44-.84,1.11-1.58,1.32-2.5s-.39-2.13-1.34-2.03"/>
  <path class="cls-6" d="M47.44,17.04c1.74.1,3.35-1.77,2.84-3.43-.6-1.97-3.41-2.85-3.54-4.91-.06-.88.42-1.69.93-2.4s1.08-1.43,1.25-2.29-.22-1.91-1.07-2.13"/>
  <path class="cls-6" d="M28.97,16.57c1.74.1,3.35-1.77,2.84-3.43-.6-1.97-3.41-2.85-3.54-4.91-.06-.88.42-1.69.93-2.4s1.08-1.43,1.25-2.29-.22-1.91-1.07-2.13"/>
</svg>